Coordinates
version=1
nRows=38
nColumns=12
inDegrees=yes

Units are S.I. units (second, meters, Newtons, ...)
Angles are in degrees

endheader
time	SC_y	SC_z	SC_x	AC_y	AC_z	AC_x	GH_y	GH_z	GH_yy	EL_x	PS_y
       0.0              -26.41          26.45          66.74           41.4         -4.139         -14.43         -42.11          86.52         -163.4          112.5          109.8
   0.03607              -26.41          26.45          66.73           41.4         -4.138         -14.42         -42.08          86.52         -163.3          112.5          109.8
   0.07213              -26.42          26.45          66.73           41.4         -4.137         -14.42         -42.05          86.51         -163.3          112.5          109.8
    0.1082              -26.42          26.45          66.72           41.4         -4.135         -14.42         -42.02           86.5         -163.2          112.4          109.8
    0.1443              -26.42          26.45          66.72           41.4         -4.134         -14.41         -41.98          86.48         -163.2          112.4          109.8
    0.1803              -26.42          26.45          66.71           41.4         -4.132         -14.41         -41.94          86.47         -163.1          112.4          109.8
    0.2164              -26.43          26.45          66.71           41.4         -4.131         -14.41          -41.9          86.46         -163.0          112.4          109.8
    0.2525              -26.43          26.44           66.7          41.41         -4.129          -14.4         -41.86          86.45         -163.0          112.4          109.8
    0.2885              -26.43          26.44          66.69          41.41         -4.127          -14.4         -41.82          86.43         -162.9          112.4          109.8
    0.3246              -26.44          26.44          66.69          41.41         -4.125         -14.39         -41.77          86.42         -162.8          112.3          109.8
    0.3607              -26.44          26.44          66.68          41.41         -4.123         -14.39         -41.72           86.4         -162.7          112.3          109.8
    0.3967              -26.45          26.44          66.67          41.41          -4.12         -14.38         -41.66          86.38         -162.6          112.3          109.8
    0.4328              -26.45          26.44          66.66          41.42         -4.118         -14.37          -41.6          86.36         -162.5          112.3          109.8
    0.4689              -26.46          26.43          66.65          41.42         -4.115         -14.37         -41.54          86.34         -162.4          112.2          109.8
    0.5049              -26.46          26.43          66.64          41.42         -4.112         -14.36         -41.47          86.32         -162.3          112.2          109.8
     0.541              -26.47          26.43          66.63          41.43         -4.109         -14.35         -41.39          86.29         -162.2          112.2          109.8
    0.5771              -26.48          26.43          66.62          41.43         -4.105         -14.34         -41.31          86.27         -162.1          112.2          109.8
    0.6131              -26.49          26.42           66.6          41.43         -4.101         -14.33         -41.22          86.24         -161.9          112.1          109.8
    0.6492              -26.49          26.42          66.59          41.44         -4.097         -14.32         -41.12          86.21         -161.8          112.1          109.7
    0.6853               -26.5          26.42          66.57          41.44         -4.093         -14.31         -41.01          86.17         -161.6          112.0          109.7
    0.7213              -26.51          26.41          66.55          41.45         -4.088          -14.3         -40.89          86.14         -161.4          112.0          109.7
    0.7574              -26.52          26.41          66.53          41.45         -4.082         -14.29         -40.76          86.09         -161.2          111.9          109.7
    0.7935              -26.54           26.4          66.51          41.46         -4.076         -14.27         -40.61          86.05         -161.0          111.9          109.7
    0.8295              -26.55           26.4          66.49          41.46         -4.069         -14.25         -40.45           86.0         -160.7          111.8          109.7
    0.8656              -26.57          26.39          66.46          41.47         -4.062         -14.24         -40.28          85.94         -160.4          111.7          109.7
    0.9017              -26.58          26.38          66.43          41.48         -4.053         -14.21         -40.08          85.88         -160.1          111.7          109.7
    0.9377               -26.6          26.38           66.4          41.49         -4.044         -14.19         -39.86           85.8         -159.8          111.6          109.6
    0.9738              -26.62          26.37          66.36           41.5         -4.033         -14.17         -39.61          85.73         -159.4          111.5          109.6
      1.01              -26.65          26.36          66.32          41.51         -4.021         -14.14         -39.32          85.63         -158.9          111.3          109.6
     1.046              -26.67          26.35          66.27          41.52         -4.008          -14.1          -39.0          85.53         -158.4          111.2          109.6
     1.082               -26.7          26.34          66.21          41.54         -3.992         -14.06         -38.64          85.42         -157.8          111.1          109.5
     1.118              -26.74          26.32          66.15          41.56         -3.974         -14.02         -38.22          85.28         -157.1          110.9          109.5
     1.154              -26.78           26.3          66.07          41.58         -3.954         -13.97         -37.73          85.13         -156.4          110.7          109.4
      1.19              -26.83          26.29          65.99           41.6          -3.93         -13.91         -37.17          84.95         -155.5          110.5          109.4
     1.226              -26.88          26.26          65.89          41.63         -3.902         -13.84         -36.51          84.73         -154.4          110.2          109.3
     1.262              -26.95          26.24          65.77          41.66         -3.869         -13.76         -35.73          84.49         -153.2          109.9          109.3
     1.298              -27.03          26.21          65.63           41.7          -3.83         -13.66         -34.81          84.19         -151.7          109.5          109.2
     1.334              -27.12          26.17          65.46          41.74         -3.783         -13.55          -33.7          83.84         -149.9          109.1          109.1
